<?xml version="1.0" standalone="no"?><!DOCTYPE svg PUBLIC "-//W3C//DTD SVG 1.1//EN" "http://www.w3.org/Graphics/SVG/1.1/DTD/svg11.dtd"><svg t="1717491939844" class="icon" viewBox="0 0 1280 1024" version="1.1" xmlns="http://www.w3.org/2000/svg" p-id="2209" xmlns:xlink="http://www.w3.org/1999/xlink" width="250" height="200"><path d="M0 448.000101v543.999905c0 17.679997 14.319997 31.999994 31.999994 31.999994h159.999972V384.000112H63.999989c-35.339994 0-63.999989 28.659995-63.999989 63.999989z m719.999873-95.999983h-47.999991v-79.999986c0-8.839998-7.159999-15.999997-15.999997-15.999997h-31.999995c-8.839998 0-15.999997 7.159999-15.999997 15.999997v127.999978c0 8.839998 7.159999 15.999997 15.999997 15.999997h95.999983c8.839998 0 15.999997-7.159999 15.999998-15.999997v-31.999995c0-8.839998-7.159999-15.999997-15.999998-15.999997z m275.499952-127.919977l-319.999944-213.339963a64.039989 64.039989 0 0 0-70.999987 0l-319.999944 213.339963A64.003989 64.003989 0 0 0 255.999955 277.320131V1024h255.999955V736.000051c0-17.679997 14.319997-31.999994 31.999994-31.999995h191.999967c17.679997 0 31.999994 14.319997 31.999994 31.999995v287.999949h255.999955V277.340131c0-21.399996-10.699998-41.399993-28.499995-53.25999zM639.999888 512.00009c-88.359984 0-159.999972-71.639987-159.999972-159.999972s71.639987-159.999972 159.999972-159.999972 159.999972 71.639987 159.999971 159.999972-71.639987 159.999972-159.999971 159.999972z m575.999898-127.999978h-127.999977v639.999888h159.999972c17.679997 0 31.999994-14.319997 31.999994-31.999994V448.000101c0-35.339994-28.659995-63.999989-63.999989-63.999989z" p-id="2210"></path></svg>